<svg width="25" height="26" viewBox="0 0 25 26" fill="none" xmlns="http://www.w3.org/2000/svg">
<path d="M8.28242 0.86845C16.9659 1.48531 23.8938 8.41315 24.5107 17.0967C24.5581 18.1881 23.8463 19.0896 22.8499 19.3269L20.762 19.8963C20.762 19.8963 20.762 19.8488 20.762 19.8014C20.762 11.45 13.9291 4.61708 5.57772 4.61708C5.53027 4.61708 5.48281 4.61708 5.48281 4.61708L6.05223 2.52923C6.28948 1.53276 7.19105 0.820999 8.28242 0.86845ZM19.1961 20.3233L1.21223 25.1159C0.927522 25.1633 0.642816 25.1159 0.453012 24.9261C0.263208 24.7363 0.215757 24.4516 0.263208 24.1669L5.05576 6.18296C5.24556 6.18296 5.38791 6.13551 5.57772 6.13551C13.1224 6.13551 19.2436 12.2567 19.2436 19.8014C19.2436 19.9912 19.1961 20.1335 19.1961 20.3233ZM8.61458 13.7277C9.42124 13.7277 10.133 13.0633 10.133 12.2092C10.133 11.4026 9.42124 10.6908 8.61458 10.6908C7.76046 10.6908 7.09615 11.4026 7.09615 12.2092C7.09615 13.0633 7.76046 13.7277 8.61458 13.7277ZM14.6883 16.7645C14.6883 15.9579 13.9765 15.2461 13.1699 15.2461C12.3158 15.2461 11.6514 15.9579 11.6514 16.7645C11.6514 17.6186 12.3158 18.283 13.1699 18.283C13.9765 18.283 14.6883 17.6186 14.6883 16.7645ZM7.85536 19.0422C7.85536 18.2355 7.1436 17.5237 6.33693 17.5237C5.48281 17.5237 4.8185 18.2355 4.8185 19.0422C4.8185 19.8963 5.48281 20.5606 6.33693 20.5606C7.1436 20.5606 7.85536 19.8963 7.85536 19.0422Z" fill="#F0F5F9"/>
</svg>
