<svg width="589.000000" height="90.000000" viewBox="0 0 589 90" fill="none" xmlns="http://www.w3.org/2000/svg" xmlns:xlink="http://www.w3.org/1999/xlink">
	<desc>
			Created with Pixso.
	</desc>
	<defs>
		<linearGradient id="paint_linear_14_19_0" x1="93.651482" y1="11.981323" x2="495.348480" y2="77.221069" gradientUnits="userSpaceOnUse">
			<stop stop-color="#7300CD"/>
			<stop offset="1.000000" stop-color="#00C6CC"/>
		</linearGradient>
	</defs>
	<path id="Vector" d="M428.63 73.7C433.14 73.7 436.82 77.17 436.82 81.46C436.82 85.74 433.14 89.2 428.63 89.2L381.51 89.2C376.97 89.2 373.31 85.73 373.31 81.46L373.31 8.04C373.31 3.76 376.97 0.3 381.51 0.3C386.02 0.3 389.7 3.76 389.7 8.04L389.7 73.7L428.63 73.7L428.63 73.7ZM501.85 1.95C498.27 -0.69 493.14 -0.12 490.32 3.24L459.59 40.06C458.45 41.44 457.84 43.12 457.84 44.87L457.84 80.83C457.84 85.13 461.51 88.58 466.02 88.58C470.55 88.58 474.22 85.13 474.22 80.83L474.22 47.55L503.2 12.84C505.99 9.49 505.4 4.61 501.86 1.95L501.85 1.95ZM457.82 21.68L442.42 3.24C439.6 -0.12 434.45 -0.69 430.89 1.95C427.34 4.61 426.74 9.49 429.55 12.84L444.94 31.28C446.55 33.22 448.95 34.23 451.39 34.23C453.15 34.23 454.97 33.68 456.44 32.57C460 29.91 460.6 25.03 457.82 21.68L457.82 21.68ZM551.33 34.74C532.94 32.1 531.16 28.19 531.16 24.04C531.16 16.96 541.3 14.85 549.83 14.85C559.79 14.85 567.53 20.43 570.3 23.56C573.22 26.86 578.82 27.3 582.3 24.52C585.77 21.78 586.18 16.88 583.28 13.61C577.25 6.83 564.58 -0.01 549.84 -0.01C517.3 -0.01 514.77 18.39 514.77 24.04C514.77 45.6 539.23 49.36 548.47 50.68C566.01 53.17 571.47 56.6 571.49 63.09C571.51 71.76 560.36 74.3 550.12 74.3C535.25 74.3 528.61 64.75 526.43 62.91C523.04 60.08 517.72 59.24 514.24 61.97C510.75 64.71 510.26 69.59 513.16 72.89C516.46 76.65 528.85 88.89 549.85 88.89C574.35 88.89 589 78.95 589 62.29C589 43.23 566.43 36.94 551.33 34.74L551.33 34.74ZM23.76 0.3L8.18 0.3C3.66 0.3 0 3.77 0 8.04L0 55.19C0 59.48 3.66 62.96 8.18 62.96C12.71 62.96 16.37 59.48 16.37 55.19L16.37 15.79L23.76 15.79C40.64 15.79 54.36 28.79 54.36 44.75C54.36 60.71 40.64 73.7 23.76 73.7L8.52 73.7C4 73.7 0.32 77.17 0.32 81.46C0.32 85.74 4 89.2 8.52 89.2L23.76 89.2C49.69 89.2 70.77 69.26 70.77 44.75C70.77 20.24 49.69 0.3 23.76 0.3ZM338.57 26.54C334.03 26.54 330.36 30.01 330.36 34.28L330.36 73.7L322.98 73.7C306.11 73.7 292.37 60.72 292.37 44.75C292.37 28.78 306.11 15.79 322.98 15.79L338.21 15.79C342.75 15.79 346.43 12.33 346.43 8.04C346.43 3.76 342.75 0.3 338.21 0.3L322.98 0.3C297.08 0.3 276 20.24 276 44.74C276 69.25 297.08 89.19 322.98 89.19L338.57 89.19C343.09 89.19 346.77 85.72 346.77 81.45L346.77 34.28C346.77 30.01 343.09 26.54 338.57 26.54ZM233.23 89C253.55 89 263.85 74.1 263.85 44.69C263.85 31.76 262.19 22.46 258.6 15.41C253.6 5.55 244.83 0.35 233.23 0.35C223.89 0.35 213.07 5.41 200.18 15.83C191.57 22.81 181.68 32.39 181.68 44.69C181.68 56.34 191.1 65.74 199.28 72.64C212.21 83.51 223.62 89.01 233.23 89.01L233.23 89ZM233.23 15.46C238.69 15.46 241.85 17.34 244.21 21.93C246.65 26.82 247.87 34.26 247.87 44.69C247.87 73.91 237.99 73.91 233.23 73.91C227.89 73.91 219.39 69.32 209.9 61.35C201.56 54.31 197.66 49.02 197.66 44.69C197.66 40.03 201.89 34.36 210.58 27.32C223.33 16.99 230.26 15.46 233.23 15.46ZM119.04 89C128.66 89 140.07 83.5 152.97 72.64C161.18 65.73 170.58 56.34 170.58 44.69C170.58 32.39 160.68 22.81 152.07 15.83C139.21 5.41 128.38 0.34 119.04 0.34C107.43 0.34 98.65 5.55 93.64 15.41C90.06 22.45 88.42 31.76 88.42 44.68C88.42 74.09 98.7 89 119.04 89L119.04 89ZM119.04 15.45C122.03 15.45 128.94 16.98 141.7 27.32C150.38 34.35 154.61 40.02 154.61 44.68C154.61 49.01 150.71 54.31 142.35 61.35C132.87 69.32 124.39 73.9 119.04 73.9C114.28 73.9 104.4 73.9 104.4 44.68C104.4 34.26 105.6 26.82 108.08 21.92C110.4 17.33 113.59 15.45 119.04 15.45Z" fill="url(#paint_linear_14_19_0)" fill-opacity="1.000000" fill-rule="evenodd"/>
	<path id="Vector" d="M428.63 73.7C433.14 73.7 436.82 77.17 436.82 81.46C436.82 85.74 433.14 89.2 428.63 89.2L381.51 89.2C376.97 89.2 373.31 85.73 373.31 81.46L373.31 8.04C373.31 3.76 376.97 0.3 381.51 0.3C386.02 0.3 389.7 3.76 389.7 8.04L389.7 73.7L428.63 73.7L428.63 73.7ZM501.85 1.95C498.27 -0.69 493.14 -0.12 490.32 3.24L459.59 40.06C458.45 41.44 457.84 43.12 457.84 44.87L457.84 80.83C457.84 85.13 461.51 88.58 466.02 88.58C470.55 88.58 474.22 85.13 474.22 80.83L474.22 47.55L503.2 12.84C505.99 9.49 505.4 4.61 501.86 1.95L501.85 1.95ZM457.82 21.68L442.42 3.24C439.6 -0.12 434.45 -0.69 430.89 1.95C427.34 4.61 426.74 9.49 429.55 12.84L444.94 31.28C446.55 33.22 448.95 34.23 451.39 34.23C453.15 34.23 454.97 33.68 456.44 32.57C460 29.91 460.6 25.03 457.82 21.68L457.82 21.68ZM551.33 34.74C532.94 32.1 531.16 28.19 531.16 24.04C531.16 16.96 541.3 14.85 549.83 14.85C559.79 14.85 567.53 20.43 570.3 23.56C573.22 26.86 578.82 27.3 582.3 24.52C585.77 21.78 586.18 16.88 583.28 13.61C577.25 6.83 564.58 -0.01 549.84 -0.01C517.3 -0.01 514.77 18.39 514.77 24.04C514.77 45.6 539.23 49.36 548.47 50.68C566.01 53.17 571.47 56.6 571.49 63.09C571.51 71.76 560.36 74.3 550.12 74.3C535.25 74.3 528.61 64.75 526.43 62.91C523.04 60.08 517.72 59.24 514.24 61.97C510.75 64.71 510.26 69.59 513.16 72.89C516.46 76.65 528.85 88.89 549.85 88.89C574.35 88.89 589 78.95 589 62.29C589 43.23 566.43 36.94 551.33 34.74L551.33 34.74ZM23.76 0.3L8.18 0.3C3.66 0.3 0 3.77 0 8.04L0 55.19C0 59.48 3.66 62.96 8.18 62.96C12.71 62.96 16.37 59.48 16.37 55.19L16.37 15.79L23.76 15.79C40.64 15.79 54.36 28.79 54.36 44.75C54.36 60.71 40.64 73.7 23.76 73.7L8.52 73.7C4 73.7 0.32 77.17 0.32 81.46C0.32 85.74 4 89.2 8.52 89.2L23.76 89.2C49.69 89.2 70.77 69.26 70.77 44.75C70.77 20.24 49.69 0.3 23.76 0.3ZM338.57 26.54C334.03 26.54 330.36 30.01 330.36 34.28L330.36 73.7L322.98 73.7C306.11 73.7 292.37 60.72 292.37 44.75C292.37 28.78 306.11 15.79 322.98 15.79L338.21 15.79C342.75 15.79 346.43 12.33 346.43 8.04C346.43 3.76 342.75 0.3 338.21 0.3L322.98 0.3C297.08 0.3 276 20.24 276 44.74C276 69.25 297.08 89.19 322.98 89.19L338.57 89.19C343.09 89.19 346.77 85.72 346.77 81.45L346.77 34.28C346.77 30.01 343.09 26.54 338.57 26.54ZM233.23 89C253.55 89 263.85 74.1 263.85 44.69C263.85 31.76 262.19 22.46 258.6 15.41C253.6 5.55 244.83 0.35 233.23 0.35C223.89 0.35 213.07 5.41 200.18 15.83C191.57 22.81 181.68 32.39 181.68 44.69C181.68 56.34 191.1 65.74 199.28 72.64C212.21 83.51 223.62 89.01 233.23 89.01L233.23 89ZM233.23 15.46C238.69 15.46 241.85 17.34 244.21 21.93C246.65 26.82 247.87 34.26 247.87 44.69C247.87 73.91 237.99 73.91 233.23 73.91C227.89 73.91 219.39 69.32 209.9 61.35C201.56 54.31 197.66 49.02 197.66 44.69C197.66 40.03 201.89 34.36 210.58 27.32C223.33 16.99 230.26 15.46 233.23 15.46ZM119.04 89C128.66 89 140.07 83.5 152.97 72.64C161.18 65.73 170.58 56.34 170.58 44.69C170.58 32.39 160.68 22.81 152.07 15.83C139.21 5.41 128.38 0.34 119.04 0.34C107.43 0.34 98.65 5.55 93.64 15.41C90.06 22.45 88.42 31.76 88.42 44.68C88.42 74.09 98.7 89 119.04 89L119.04 89ZM119.04 15.45C122.03 15.45 128.94 16.98 141.7 27.32C150.38 34.35 154.61 40.02 154.61 44.68C154.61 49.01 150.71 54.31 142.35 61.35C132.87 69.32 124.39 73.9 119.04 73.9C114.28 73.9 104.4 73.9 104.4 44.68C104.4 34.26 105.6 26.82 108.08 21.92C110.4 17.33 113.59 15.45 119.04 15.45Z" fill="#FFFFFF" fill-opacity="0.200000" fill-rule="evenodd"/>
</svg>
