<svg width="48" height="48" viewBox="0 0 48 48" fill="none" xmlns="http://www.w3.org/2000/svg">
<circle cx="24" cy="24" r="24" fill="#00B2FF"/>
<path d="M24.0441 11.6378C31.8257 11.6378 38.1172 16.8255 38.1172 23.117C38.1172 29.4637 31.8257 34.5962 24.0441 34.5962C21.8917 34.5962 19.905 34.2099 18.0837 33.5476C16.704 34.6514 13.9998 36.3622 10.3573 36.3622C10.1366 36.3622 9.97101 36.3071 9.91582 36.1415C9.86063 35.9759 9.86063 35.7552 10.0262 35.6448C10.0262 35.5896 12.3441 33.1613 13.0064 30.3467C11.0748 28.3599 9.91582 25.8764 9.91582 23.117C9.91582 16.8255 16.2073 11.6378 24.0441 11.6378Z" fill="white"/>
</svg>
