<svg width="188" height="89" viewBox="0 0 188 89" fill="none" xmlns="http://www.w3.org/2000/svg">
<g clip-path="url(#clip0_250_469)">
<mask id="mask0_250_469" style="mask-type:luminance" maskUnits="userSpaceOnUse" x="0" y="0" width="188" height="89">
<path d="M187.418 49.0411L11.1113 0L0.123982 39.5004L176.43 88.5414L187.418 49.0411Z" fill="white"/>
</mask>
<g mask="url(#mask0_250_469)">
<path d="M9.49609 5.80884L39.6538 14.1974L35.3748 29.5806C34.2776 33.5253 31.1678 36.5785 27.2057 37.6094L16.066 40.5935L8.07726 32.2887C5.21248 29.3747 4.13453 25.1408 5.23178 21.1961L9.51073 5.81291L9.49609 5.80884Z" fill="#FFDD2D"/>
<path fill-rule="evenodd" clip-rule="evenodd" d="M15.3633 16.1621L14.0335 20.9427C14.8963 20.3928 16.2209 20.224 17.5679 20.5987L19.0467 21.01L17.5007 26.5679C17.0887 28.049 16.3345 29.2295 15.5343 29.7811L22.1014 31.6078C21.701 30.7223 21.6975 29.3309 22.1095 27.8499L23.6555 22.292L25.0937 22.692C26.4554 23.0708 27.5122 23.902 27.9525 24.8144L29.2822 20.0338L15.3633 16.1621Z" fill="black"/>
<path d="M175.621 60.0035L172.141 59.0356L171.783 60.3239C166.878 59.073 163.059 60.2385 162.044 63.888C161.028 67.5373 163.742 70.3475 168.588 71.8086L168.23 73.097L171.709 74.0649L172.068 72.7765C176.999 74.035 180.763 73.0267 181.778 69.3774C182.793 65.7279 180.135 62.7604 175.262 61.2918L175.621 60.0035ZM169.349 69.0716C166.701 68.2218 165.497 66.7014 165.976 64.9817C166.454 63.2621 168.301 62.4474 171.013 63.0887L169.349 69.0716ZM174.493 64.0566C177.169 64.914 178.292 66.5607 177.815 68.2749C177.338 69.989 175.563 70.6867 172.829 70.0395L174.493 64.0566Z" fill="black"/>
<path d="M154.744 54.1959L151.264 53.228L150.906 54.5162C146.001 53.2653 142.182 54.4309 141.167 58.0804C140.151 61.7297 142.865 64.5399 147.711 66.001L147.353 67.2894L150.832 68.2573L151.191 66.9689C156.122 68.2273 159.886 67.2191 160.901 63.5697C161.916 59.9203 159.258 56.9528 154.385 55.4842L154.744 54.1959ZM148.472 63.264C145.824 62.4142 144.62 60.8938 145.099 59.1741C145.577 57.4544 147.424 56.6398 150.137 57.281L148.472 63.264ZM153.616 58.249C156.292 59.1064 157.415 60.7531 156.938 62.4673C156.461 64.1814 154.686 64.8791 151.952 64.2319L153.616 58.249Z" fill="black"/>
<path d="M133.558 48.708C128.336 47.2555 124.378 49.3358 123.318 53.1455C122.258 56.9553 124.574 60.7805 129.795 62.233C135.017 63.6855 138.947 61.5975 140.007 57.7876C141.067 53.978 138.753 50.1531 133.558 48.708ZM130.661 59.1199C128.061 58.3966 126.832 56.3808 127.415 54.2851C127.998 52.1895 130.083 51.1254 132.684 51.8487C135.284 52.5721 136.519 54.5658 135.938 56.6558C135.357 58.746 133.234 59.8355 130.661 59.1199Z" fill="black"/>
<path d="M113.206 51.9834L116.499 58.106L121.672 59.5449L117.063 51.0963L124.98 46.7096L120.105 45.3538L114.082 48.8552L113.011 48.5573L114.347 43.7522L110.461 42.6711L106.908 55.4443L110.794 56.5253L112.139 51.6926L113.21 51.9905L113.206 51.9834Z" fill="black"/>
<path d="M99.7061 53.4283C100.589 53.674 101.418 53.8153 102.228 53.8141C104.394 53.809 106.163 52.5378 106.783 50.3094C107.403 48.081 106.657 46.4019 105.05 45.2283C104.284 44.6695 103.27 44.3578 102.309 44.0906L98.3181 42.9804L99.2732 39.5466L95.3867 38.4656L91.8338 51.2386L99.7117 53.4299L99.7061 53.4283ZM100.799 46.9113C101.335 47.0603 101.843 47.2016 102.256 47.4893C102.837 47.8831 103.063 48.5239 102.884 49.1653C102.706 49.8068 102.166 50.294 101.472 50.3929C100.989 50.4611 100.564 50.3429 99.8909 50.1556L96.5675 49.2312L97.4704 45.9854L100.794 46.9098L100.799 46.9113Z" fill="black"/>
<path d="M86.948 44.7659L85.6268 49.5158L89.5125 50.5966L93.0654 37.8236L89.1797 36.7427L87.7738 41.7972L81.6271 40.0874L83.033 35.033L79.1465 33.9519L75.5936 46.7249L79.4801 47.806L80.8013 43.0562L86.948 44.7659Z" fill="black"/>
<path d="M64.7275 37.9446L66.7947 30.513L62.9082 29.4319L59.3553 42.2049L62.7835 43.1585L71.4557 37.5642L69.3885 44.9957L73.2742 46.0766L76.8271 33.3035L73.3938 32.3485L64.7275 37.9446Z" fill="black"/>
<path d="M52.7443 40.3688L55.3297 31.0741L60.7812 32.5905L61.7507 29.1052L46.6719 24.9109L45.7024 28.3962L51.154 29.9126L48.5686 39.2073L52.7443 40.3688Z" fill="black"/>
</g>
</g>
<defs>
<clipPath id="clip0_250_469">
<rect width="183" height="41" fill="white" transform="translate(11.1113) rotate(15.5443)"/>
</clipPath>
</defs>
</svg>
