<svg width="48" height="48" viewBox="0 0 48 48" fill="none" xmlns="http://www.w3.org/2000/svg">
<circle cx="24" cy="24" r="24" fill="black"/>
<path d="M35.525 29.8848L34.4412 34.4457C34.3058 35.1231 33.7639 35.5747 33.0865 35.5747C21.7066 35.5295 12.4492 26.2721 12.4492 14.8923C12.4492 14.2149 12.8556 13.673 13.533 13.5375L18.094 12.4537C18.7262 12.3183 19.4036 12.6795 19.6745 13.2666L21.797 18.1888C22.0227 18.7759 21.8873 19.4532 21.3905 19.8145L18.952 21.8015C20.4874 24.9174 23.0162 27.4462 26.1773 28.9816L28.1642 26.5431C28.5255 26.0915 29.2029 25.9109 29.7899 26.1366L34.7122 28.2591C35.2992 28.5752 35.6605 29.2526 35.525 29.8848Z" fill="#F0F5F9"/>
</svg>
