<svg width="46" height="47" viewBox="0 0 46 47" fill="white" xmlns="http://www.w3.org/2000/svg">
<path d="M22.7656 0.609375C35.25 0.609375 45.5312 10.8906 45.5312 23.375C45.5312 35.9512 35.25 46.1406 22.7656 46.1406C10.1895 46.1406 0 35.9512 0 23.375C0 10.8906 10.1895 0.609375 22.7656 0.609375ZM33.2305 16.123C33.3223 15.8477 33.3223 15.5723 33.2305 15.2051C33.2305 15.0215 33.0469 14.7461 32.9551 14.6543C32.6797 14.3789 32.2207 14.3789 32.0371 14.3789C31.2109 14.3789 29.834 14.8379 23.5 17.5C21.2969 18.418 16.8906 20.2539 10.2812 23.1914C9.17969 23.6504 8.62891 24.0176 8.53711 24.4766C8.44531 25.2109 9.63867 25.4863 11.0156 25.9453C12.209 26.3125 13.7695 26.7715 14.5957 26.7715C15.3301 26.7715 16.1562 26.4961 17.0742 25.8535C23.2246 21.6309 26.4375 19.5195 26.6211 19.5195C26.8047 19.5195 26.9883 19.4277 27.0801 19.5195C27.2637 19.7031 27.2637 19.8867 27.1719 19.9785C27.0801 20.4375 21.2969 25.7617 20.9297 26.1289C19.6445 27.4141 18.1758 28.2402 20.4707 29.709C22.3984 30.9941 23.5 31.8203 25.5195 33.1055C26.8047 33.9316 27.8145 34.9414 29.0996 34.8496C29.7422 34.7578 30.3848 34.207 30.6602 32.4629C31.4863 28.5156 32.9551 19.7031 33.2305 16.123Z" fill="#0186C2"/>
</svg>
