<svg width="47" height="47" viewBox="0 0 47 47" fill="none" xmlns="http://www.w3.org/2000/svg">
<rect width="47" height="47" rx="23.5" fill="#57FFA4"/>
<path d="M31.2969 15.2266C33.4297 17.3594 34.75 20.1523 34.75 23.1992C34.75 29.3945 29.5703 34.4727 23.3242 34.4727C21.4453 34.4727 19.6172 33.9648 17.9414 33.1016L12 34.625L13.5742 28.7852C12.6094 27.1094 12.0508 25.1797 12.0508 23.1484C12.0508 16.9531 17.1289 11.875 23.3242 11.875C26.3711 11.875 29.2148 13.0938 31.2969 15.2266ZM23.3242 32.543C28.5039 32.543 32.8203 28.3281 32.8203 23.1992C32.8203 20.6602 31.7539 18.3242 29.9766 16.5469C28.1992 14.7695 25.8633 13.8047 23.375 13.8047C18.1953 13.8047 13.9805 18.0195 13.9805 23.1484C13.9805 24.9258 14.4883 26.6523 15.4023 28.1758L15.6562 28.5312L14.6914 31.9844L18.2461 31.0195L18.5508 31.2227C20.0234 32.0859 21.6484 32.543 23.3242 32.543ZM28.5039 25.5352C28.7578 25.6875 28.9609 25.7383 29.0117 25.8906C29.1133 25.9922 29.1133 26.5508 28.8594 27.2109C28.6055 27.8711 27.4883 28.4805 26.9805 28.5312C26.0664 28.6836 25.3555 28.6328 23.5781 27.8203C20.7344 26.6016 18.9062 23.7578 18.7539 23.6055C18.6016 23.4023 17.6367 22.082 17.6367 20.6602C17.6367 19.2891 18.3477 18.6289 18.6016 18.3242C18.8555 18.0195 19.1602 17.9688 19.3633 17.9688C19.5156 17.9688 19.7188 17.9688 19.8711 17.9688C20.0742 17.9688 20.2773 17.918 20.5312 18.4766C20.7344 19.0352 21.3438 20.4062 21.3945 20.5586C21.4453 20.7109 21.4961 20.8633 21.3945 21.0664C20.8867 22.1328 20.2773 22.082 20.582 22.5898C21.6992 24.4688 22.7656 25.1289 24.4414 25.9414C24.6953 26.0938 24.8477 26.043 25.0508 25.8906C25.2031 25.6875 25.7617 25.0273 25.9141 24.7734C26.1172 24.4688 26.3203 24.5195 26.5742 24.6211C26.8281 24.7227 28.1992 25.3828 28.5039 25.5352Z" fill="white"/>
</svg>
