<svg width="158" height="75" viewBox="0 0 158 75" fill="none" xmlns="http://www.w3.org/2000/svg">
<g clip-path="url(#clip0_250_468)">
<path fill-rule="evenodd" clip-rule="evenodd" d="M18.769 53.6598C16.2228 44.1192 21.7946 34.27 31.4431 31.6496C41.008 29.0519 51.0439 34.7079 53.5315 44.3027C56.1293 53.8676 50.4434 63.7934 40.8785 66.3911C31.3394 68.9818 21.4712 63.4431 18.8116 53.8166L22.3136 66.7111L16.1569 68.3832L1.37351 45.2465L15.4461 41.4246L18.769 53.6598ZM29.6743 50.782C30.6297 54.3001 34.4044 56.4625 37.9225 55.507C41.5506 54.5216 43.6028 50.7768 42.6474 47.2587C41.6919 43.7406 37.9173 41.5783 34.3991 42.5338C30.881 43.4893 28.7188 47.264 29.6743 50.782Z" fill="#0F6FFF"/>
<path fill-rule="evenodd" clip-rule="evenodd" d="M79.5473 29.3782L74.8101 30.6648L73.0578 37.4665L71.3321 37.9352L67.8145 25.2003L63.3301 26.4182L69.5838 49.4448L74.0682 48.2269L72.4068 41.892L74.1214 41.4263L80.2893 46.5373L85.2574 45.188L77.1794 38.3889L79.5473 29.3782ZM115.548 27.7442C114.477 27.402 113.364 27.208 112.24 27.1673L111.149 27.0623L110.859 27.035L110.854 27.0346C110.177 26.971 109.466 26.9043 109.274 26.2852C109.218 26.1011 109.209 25.9059 109.249 25.7177C109.289 25.5294 109.375 25.3543 109.501 25.2086C109.765 24.8966 110.11 24.6638 110.499 24.5364C111.341 24.2438 112.262 24.2664 113.089 24.6001L113.231 24.6442L114.877 21.2346L114.73 21.1685C114.359 20.9836 113.971 20.836 113.571 20.7278C112.857 20.5421 112.118 20.4758 111.382 20.5317C110.317 20.5909 109.275 20.8737 108.326 21.3615C107.388 21.7549 106.567 22.3844 105.943 23.189C105.548 23.7176 105.261 24.3188 105.099 24.9583C104.936 25.5977 104.901 26.2629 104.996 26.916C105.168 28.094 105.771 29.1664 106.687 29.9264C107.829 30.6603 109.164 31.0373 110.522 31.0093L110.738 31.0216L111.23 31.0531C113.006 31.1608 113.527 31.2553 113.881 31.5133C114.048 31.6459 114.172 31.8267 114.234 32.0312C114.446 32.8115 113.576 33.39 112.981 33.764C112.551 33.9723 112.082 34.0902 111.605 34.1103C111.127 34.1303 110.65 34.0522 110.204 33.8809C109.492 33.6416 108.835 33.2622 108.272 32.7651C108.225 32.8523 108.064 33.1324 107.854 33.4987C107.265 34.5262 106.288 36.2316 106.329 36.2551L106.436 36.3442C108.04 37.5177 109.999 38.1025 111.984 38.0003C112.435 37.9667 112.883 37.9042 113.326 37.813L113.776 37.6906C115.265 37.3195 116.593 36.4742 117.56 35.2821C118.216 34.4866 118.622 33.5138 118.724 32.4875C118.771 31.8044 118.667 31.1196 118.42 30.4812C118.173 29.8426 117.79 29.2661 117.296 28.792C116.795 28.3214 116.199 27.9641 115.548 27.7442ZM126.738 23.2297C127.858 23.2713 128.968 23.4664 130.035 23.8096C130.676 24.0321 131.263 24.3876 131.758 24.8522C132.252 25.3263 132.635 25.903 132.882 26.5416C133.128 27.1802 133.233 27.8648 133.187 28.5477C133.083 29.5743 132.679 30.5469 132.022 31.3425C131.055 32.5345 129.727 33.3798 128.238 33.7509L127.787 33.8733C127.345 33.9652 126.897 34.0278 126.446 34.0606C124.461 34.1628 122.502 33.578 120.897 32.4046L120.78 32.3185C120.75 32.2956 121.522 30.9441 122.105 29.9231C122.411 29.3869 122.665 28.9418 122.723 28.8283C123.291 29.3192 123.946 29.6978 124.655 29.9443C125.103 30.1154 125.582 30.1931 126.061 30.1724C126.541 30.1518 127.011 30.0333 127.443 29.8243C128.038 29.4504 128.897 28.875 128.685 28.0945C128.634 27.8866 128.513 27.7024 128.343 27.5738C127.989 27.3156 127.468 27.2212 125.681 27.1163L125.188 27.0849L124.984 27.0697C123.626 27.0978 122.291 26.7207 121.149 25.9869C120.228 25.231 119.624 24.1564 119.458 22.9763C119.367 22.3225 119.406 21.6571 119.573 21.0184C119.739 20.3797 120.031 19.7802 120.43 19.2544C121.056 18.4527 121.877 17.8238 122.813 17.4269C123.766 16.9378 124.811 16.6541 125.88 16.5941C126.612 16.5395 127.348 16.6068 128.059 16.7931C128.462 16.8972 128.854 17.044 129.227 17.231L129.365 17.2999L127.718 20.7095L127.587 20.6625C126.759 20.3309 125.84 20.3083 124.997 20.5988C124.608 20.7262 124.263 20.959 123.999 21.271C123.878 21.4199 123.793 21.5951 123.752 21.7826C123.711 21.97 123.714 22.1645 123.761 22.3506C123.964 22.9681 124.667 23.0368 125.357 23.0974L125.636 23.1278L126.738 23.2297ZM94.2751 25.3782L94.705 26.9609L94.5072 27.0146C92.9459 26.119 91.0942 25.8754 89.3545 26.3369C88.284 26.6051 87.2818 27.0957 86.4135 27.7769C85.5452 28.458 84.8301 29.3144 84.3147 30.2903C83.2948 32.3298 83.0895 34.6811 83.7405 36.8665C84.291 39.1188 85.6668 41.0825 87.5953 42.3696C88.5164 42.956 89.5528 43.3372 90.6342 43.4874C91.7156 43.6376 92.8167 43.5533 93.8627 43.2402C95.5929 42.7353 97.0911 41.6393 98.0963 40.1431L98.2722 40.0954L98.6573 41.5133L103.318 40.2477L98.9355 24.1125L94.2751 25.3782ZM96.7119 33.438C97.1118 34.7257 97.0228 36.1154 96.462 37.3416C96.1845 37.8967 95.7882 38.384 95.3013 38.7691C94.8144 39.1542 94.2489 39.4277 93.6447 39.5701C93.0668 39.7376 92.4584 39.7724 91.8652 39.672C91.2718 39.5715 90.7087 39.3384 90.218 38.9901C89.1183 38.1928 88.347 37.0217 88.0489 35.6963C87.6666 34.4362 87.7602 33.0796 88.3118 31.8838C88.5675 31.34 88.9403 30.8595 89.4036 30.4765C89.8668 30.0937 90.4089 29.8179 90.9912 29.6691C91.5808 29.489 92.203 29.442 92.813 29.5315C93.4231 29.6209 94.0056 29.8446 94.5187 30.1863C95.6238 30.9646 96.4043 32.1219 96.7119 33.438ZM145.397 13.1936L144.967 11.6109L149.628 10.3452L154.01 26.4803L149.35 27.746L148.964 26.3281L148.788 26.3759C147.784 27.8719 146.285 28.9679 144.555 29.4731C143.509 29.7861 142.408 29.8702 141.327 29.7199C140.244 29.57 139.208 29.1888 138.288 28.6021C136.359 27.3154 134.983 25.3516 134.433 23.0991C133.782 20.9137 133.987 18.5626 135.008 16.5228C135.526 15.547 136.243 14.6907 137.113 14.0092C137.982 13.328 138.986 12.8363 140.058 12.5667C141.795 12.109 143.641 12.3537 145.2 13.2472L145.397 13.1936ZM147.155 23.5741C147.72 22.3496 147.81 20.9576 147.404 19.6707C147.102 18.3523 146.32 17.1935 145.211 16.4189C144.698 16.0773 144.116 15.8535 143.505 15.7641C142.895 15.6748 142.273 15.7217 141.683 15.9019C141.101 16.0506 140.559 16.3263 140.096 16.7094C139.632 17.0923 139.26 17.5725 139.004 18.1164C138.452 19.3122 138.359 20.6691 138.741 21.9291C139.039 23.2544 139.81 24.4255 140.91 25.2227C141.401 25.5712 141.964 25.8044 142.557 25.9047C143.151 26.0051 143.759 25.9702 144.337 25.8027C144.941 25.6605 145.507 25.3867 145.993 25.002C146.48 24.6168 146.876 24.1294 147.155 23.5741Z" fill="white"/>
</g>
<defs>
<clipPath id="clip0_250_468">
<rect width="153" height="36" fill="white" transform="translate(0 40.1892) rotate(-15.1944)"/>
</clipPath>
</defs>
</svg>
