<svg width="349" height="45" viewBox="0 0 349 45" fill="none" xmlns="http://www.w3.org/2000/svg">
<g filter="url(#filter0_b_179_311)">
<rect y="1" width="118" height="43" rx="21.5" fill="#0186C2"/>
<path d="M28.06 15V26.86H29.84V32H27.52V29H18.46V32H16.14V26.86H17.1C17.62 26.48 18.3 25.74 18.42 24.34L19.2 15H28.06ZM19.8 26.86H25.74V17.14H21.3L20.72 24.34C20.62 25.62 20.24 26.4 19.8 26.86ZM35.8997 29.24C33.1597 29.24 30.8797 26.88 30.8797 23.94C30.8797 20.98 33.1597 18.64 35.8997 18.64C38.6397 18.64 40.9197 20.98 40.9197 23.94C40.9197 26.88 38.6397 29.24 35.8997 29.24ZM35.8997 27.2C37.4597 27.2 38.7397 25.86 38.7397 23.94C38.7397 22.02 37.4597 20.68 35.8997 20.68C34.3397 20.68 33.0597 22.02 33.0597 23.94C33.0597 25.86 34.3397 27.2 35.8997 27.2ZM47.345 29.24C44.605 29.24 42.325 26.88 42.325 23.94C42.325 20.98 44.605 18.64 47.345 18.64C49.865 18.64 51.625 20.62 52.025 22.6H49.825C49.585 21.78 48.785 20.68 47.345 20.68C45.785 20.68 44.505 22.02 44.505 23.94C44.505 25.86 45.785 27.2 47.345 27.2C48.785 27.2 49.585 26.1 49.825 25.28H52.025C51.625 27.24 49.865 29.24 47.345 29.24ZM57.7309 29H55.5509V20.92H52.4709V18.88H60.8109V20.92H57.7309V29ZM65.7675 18.64C68.2475 18.64 69.8075 20.3 69.8075 22.76V29H68.1675L67.7675 27.86H67.6675C67.2675 28.38 66.3275 29.24 64.7075 29.24C62.7275 29.24 61.3075 27.88 61.3075 26.22C61.3075 24.2 63.2275 22.92 66.0075 22.92H67.6275V22.58C67.6275 21.36 66.8875 20.62 65.7475 20.62C64.6475 20.62 64.0875 21.3 63.9675 21.96H61.7675C61.9475 20.26 63.3275 18.64 65.7675 18.64ZM65.1675 27.38C66.6675 27.38 67.6275 26.34 67.6275 25.14V24.5H66.0275C64.3075 24.5 63.5075 25.12 63.5075 26.04C63.5075 26.82 64.0675 27.38 65.1675 27.38ZM78.7605 23.68C79.5605 23.98 80.4205 24.76 80.4205 26.12C80.4205 27.74 79.1205 29 77.2805 29H72.2605V18.88H76.9005C78.7205 18.88 80.0205 20.12 80.0205 21.58C80.0205 22.66 79.3405 23.4 78.7605 23.68ZM76.5005 20.6H74.3805V23.04H76.5005C77.3605 23.04 77.9005 22.56 77.9005 21.8C77.9005 21.08 77.3605 20.6 76.5005 20.6ZM74.3805 27.28H76.9005C77.7005 27.28 78.3005 26.74 78.3005 25.94C78.3005 25.2 77.7005 24.62 76.9005 24.62H74.3805V27.28ZM86.7772 23.68L91.1172 29H88.3772L84.5972 24.22V29H82.3972V18.88H84.5972V23.36L88.1372 18.88H90.6772L86.7772 23.68ZM95.8066 18.64C98.2866 18.64 99.8466 20.3 99.8466 22.76V29H98.2066L97.8066 27.86H97.7066C97.3066 28.38 96.3666 29.24 94.7466 29.24C92.7666 29.24 91.3466 27.88 91.3466 26.22C91.3466 24.2 93.2666 22.92 96.0466 22.92H97.6666V22.58C97.6666 21.36 96.9266 20.62 95.7866 20.62C94.6866 20.62 94.1266 21.3 94.0066 21.96H91.8066C91.9866 20.26 93.3666 18.64 95.8066 18.64ZM95.2066 27.38C96.7066 27.38 97.6666 26.34 97.6666 25.14V24.5H96.0666C94.3466 24.5 93.5466 25.12 93.5466 26.04C93.5466 26.82 94.1066 27.38 95.2066 27.38Z" fill="white"/>
</g>
<g filter="url(#filter1_b_179_311)">
<rect x="96" y="1" width="87" height="43" rx="21.5" fill="#7300CD" fill-opacity="0.5"/>
<path d="M118.22 21.8L123.96 29H121.04L115.86 22.38V29H113.54V15H115.86V21.42L120.84 15H123.58L118.22 21.8ZM128.623 18.64C131.103 18.64 132.663 20.3 132.663 22.76V29H131.023L130.623 27.86H130.523C130.123 28.38 129.183 29.24 127.563 29.24C125.583 29.24 124.163 27.88 124.163 26.22C124.163 24.2 126.083 22.92 128.863 22.92H130.483V22.58C130.483 21.36 129.743 20.62 128.603 20.62C127.503 20.62 126.943 21.3 126.823 21.96H124.623C124.803 20.26 126.183 18.64 128.623 18.64ZM128.023 27.38C129.523 27.38 130.483 26.34 130.483 25.14V24.5H128.883C127.163 24.5 126.363 25.12 126.363 26.04C126.363 26.82 126.923 27.38 128.023 27.38ZM139.556 29.24C136.816 29.24 134.536 26.88 134.536 23.94C134.536 20.98 136.816 18.64 139.556 18.64C142.076 18.64 143.836 20.62 144.236 22.6H142.036C141.796 21.78 140.996 20.68 139.556 20.68C137.996 20.68 136.716 22.02 136.716 23.94C136.716 25.86 137.996 27.2 139.556 27.2C140.996 27.2 141.796 26.1 142.036 25.28H144.236C143.836 27.24 142.076 29.24 139.556 29.24ZM150.533 29.24C147.793 29.24 145.513 26.88 145.513 23.94C145.513 20.98 147.793 18.64 150.533 18.64C153.053 18.64 154.812 20.62 155.213 22.6H153.013C152.773 21.78 151.973 20.68 150.533 20.68C148.973 20.68 147.693 22.02 147.693 23.94C147.693 25.86 148.973 27.2 150.533 27.2C151.973 27.2 152.773 26.1 153.013 25.28H155.213C154.812 27.24 153.053 29.24 150.533 29.24ZM160.869 18.64C163.349 18.64 164.909 20.3 164.909 22.76V29H163.269L162.869 27.86H162.769C162.369 28.38 161.429 29.24 159.809 29.24C157.829 29.24 156.409 27.88 156.409 26.22C156.409 24.2 158.329 22.92 161.109 22.92H162.729V22.58C162.729 21.36 161.989 20.62 160.849 20.62C159.749 20.62 159.189 21.3 159.069 21.96H156.869C157.049 20.26 158.429 18.64 160.869 18.64ZM160.269 27.38C161.769 27.38 162.729 26.34 162.729 25.14V24.5H161.129C159.409 24.5 158.609 25.12 158.609 26.04C158.609 26.82 159.169 27.38 160.269 27.38Z" fill="white"/>
</g>
<g filter="url(#filter2_b_179_311)">
<rect x="161" y="1" width="85" height="43" rx="21.5" fill="#00C6CC" fill-opacity="0.6"/>
<path d="M183.22 21.8L188.96 29H186.04L180.86 22.38V29H178.54V15H180.86V21.42L185.84 15H188.58L183.22 21.8ZM193.468 26.06L196.068 18.88H198.328L194.128 29.56C193.168 31.98 192.208 32.7 190.928 32.7C190.468 32.7 190.088 32.6 189.848 32.5V30.5C190.048 30.6 190.268 30.64 190.528 30.64C191.288 30.64 191.788 30.32 192.148 29.38L192.388 28.74L188.408 18.88H190.768L193.468 26.06ZM204.431 23.84L207.871 29H205.351L203.031 25.36L200.711 29H198.271L201.711 23.84L198.491 18.88H200.991L203.111 22.28L205.231 18.88H207.631L204.431 23.84ZM215.937 22.92V18.88H218.137V29H215.937V24.96H211.437V29H209.237V18.88H211.437V22.92H215.937ZM223.842 18.88H228.302V29H226.102V25.56H224.382L222.322 29H219.822L222.222 25.22C221.022 24.7 220.242 23.58 220.242 22.2C220.242 20.28 221.702 18.88 223.842 18.88ZM226.182 20.74H224.062C223.062 20.74 222.422 21.34 222.422 22.2C222.422 23.12 223.042 23.7 224.062 23.7H226.182V20.74Z" fill="white"/>
</g>
<g filter="url(#filter3_b_179_311)">
<rect x="224" y="1" width="102" height="43" rx="21.5" fill="white" fill-opacity="0.01"/>
<rect x="224.5" y="1.5" width="101" height="42" rx="21" stroke="white" stroke-opacity="0.25"/>
<path d="M243.86 20.58H247.24C249.88 20.58 251.74 22.4 251.74 24.78C251.74 27.16 249.88 29 247.24 29H241.54V15H250.7V17.1H243.86V20.58ZM243.86 26.9H247.18C248.52 26.9 249.42 26.06 249.42 24.78C249.42 23.5 248.52 22.66 247.18 22.66H243.86V26.9ZM258.142 29.24C255.402 29.24 253.122 26.88 253.122 23.94C253.122 20.98 255.402 18.64 258.142 18.64C260.882 18.64 263.162 20.98 263.162 23.94C263.162 26.88 260.882 29.24 258.142 29.24ZM258.142 27.2C259.702 27.2 260.982 25.86 260.982 23.94C260.982 22.02 259.702 20.68 258.142 20.68C256.582 20.68 255.302 22.02 255.302 23.94C255.302 25.86 256.582 27.2 258.142 27.2ZM271.847 22.92V18.88H274.047V29H271.847V24.96H267.347V29H265.147V18.88H267.347V22.92H271.847ZM280.452 26.06L283.052 18.88H285.312L281.112 29.56C280.152 31.98 279.192 32.7 277.912 32.7C277.452 32.7 277.072 32.6 276.832 32.5V30.5C277.032 30.6 277.252 30.64 277.512 30.64C278.272 30.64 278.772 30.32 279.132 29.38L279.372 28.74L275.392 18.88H277.752L280.452 26.06ZM290.896 29.24C288.156 29.24 285.876 26.88 285.876 23.94C285.876 20.98 288.156 18.64 290.896 18.64C293.416 18.64 295.176 20.62 295.576 22.6H293.376C293.136 21.78 292.336 20.68 290.896 20.68C289.336 20.68 288.056 22.02 288.056 23.94C288.056 25.86 289.336 27.2 290.896 27.2C292.336 27.2 293.136 26.1 293.376 25.28H295.576C295.176 27.24 293.416 29.24 290.896 29.24ZM299.632 22.18H301.712C303.812 22.18 305.272 23.6 305.272 25.58C305.272 27.6 303.812 29 301.712 29H297.432V18.88H299.632V22.18ZM306.372 29V18.88H308.572V29H306.372ZM299.632 27.12H301.412C302.452 27.12 303.072 26.54 303.072 25.58C303.072 24.66 302.452 24.06 301.412 24.06H299.632V27.12Z" fill="white" fill-opacity="0.28"/>
</g>
<g filter="url(#filter4_b_179_311)">
<rect x="304" width="45" height="45" rx="22.5" fill="white" fill-opacity="0.15"/>
<path d="M316 22.1121C317.867 22.1121 330.778 22.1121 337 22.1121" stroke="white" stroke-width="2" stroke-linecap="round"/>
<path d="M326.889 12C326.889 13.8667 326.889 26.7778 326.889 33" stroke="white" stroke-width="2" stroke-linecap="round"/>
</g>
<defs>
<filter id="filter0_b_179_311" x="-24" y="-23" width="166" height="91" filterUnits="userSpaceOnUse" color-interpolation-filters="sRGB">
<feFlood flood-opacity="0" result="BackgroundImageFix"/>
<feGaussianBlur in="BackgroundImageFix" stdDeviation="12"/>
<feComposite in2="SourceAlpha" operator="in" result="effect1_backgroundBlur_179_311"/>
<feBlend mode="normal" in="SourceGraphic" in2="effect1_backgroundBlur_179_311" result="shape"/>
</filter>
<filter id="filter1_b_179_311" x="72" y="-23" width="135" height="91" filterUnits="userSpaceOnUse" color-interpolation-filters="sRGB">
<feFlood flood-opacity="0" result="BackgroundImageFix"/>
<feGaussianBlur in="BackgroundImageFix" stdDeviation="12"/>
<feComposite in2="SourceAlpha" operator="in" result="effect1_backgroundBlur_179_311"/>
<feBlend mode="normal" in="SourceGraphic" in2="effect1_backgroundBlur_179_311" result="shape"/>
</filter>
<filter id="filter2_b_179_311" x="137" y="-23" width="133" height="91" filterUnits="userSpaceOnUse" color-interpolation-filters="sRGB">
<feFlood flood-opacity="0" result="BackgroundImageFix"/>
<feGaussianBlur in="BackgroundImageFix" stdDeviation="12"/>
<feComposite in2="SourceAlpha" operator="in" result="effect1_backgroundBlur_179_311"/>
<feBlend mode="normal" in="SourceGraphic" in2="effect1_backgroundBlur_179_311" result="shape"/>
</filter>
<filter id="filter3_b_179_311" x="200" y="-23" width="150" height="91" filterUnits="userSpaceOnUse" color-interpolation-filters="sRGB">
<feFlood flood-opacity="0" result="BackgroundImageFix"/>
<feGaussianBlur in="BackgroundImageFix" stdDeviation="12"/>
<feComposite in2="SourceAlpha" operator="in" result="effect1_backgroundBlur_179_311"/>
<feBlend mode="normal" in="SourceGraphic" in2="effect1_backgroundBlur_179_311" result="shape"/>
</filter>
<filter id="filter4_b_179_311" x="300" y="-4" width="53" height="53" filterUnits="userSpaceOnUse" color-interpolation-filters="sRGB">
<feFlood flood-opacity="0" result="BackgroundImageFix"/>
<feGaussianBlur in="BackgroundImageFix" stdDeviation="2"/>
<feComposite in2="SourceAlpha" operator="in" result="effect1_backgroundBlur_179_311"/>
<feBlend mode="normal" in="SourceGraphic" in2="effect1_backgroundBlur_179_311" result="shape"/>
</filter>
</defs>
</svg>
