<svg width="47" height="47" viewBox="0 0 47 47" fill="none" xmlns="http://www.w3.org/2000/svg">
<rect width="47" height="47" rx="23.5" fill="white"/>
<path d="M18.6484 11.6934L20.7578 16.7559C21.127 17.5996 20.916 18.6016 20.1777 19.1816L17.5938 21.3438C19.334 25.0352 22.3398 28.041 26.0312 29.7812L28.1934 27.1973C28.7734 26.459 29.7754 26.248 30.6191 26.6172L35.6816 28.7266C36.6836 29.0957 37.1582 30.2031 36.8945 31.2051L35.6289 35.8457C35.3652 36.7422 34.5742 37.375 33.625 37.375C20.5469 37.375 10 26.8281 10 13.75C10 12.8008 10.6328 12.0098 11.5293 11.7461L16.1699 10.4805C17.1719 10.2168 18.2793 10.6914 18.6484 11.6934Z" fill="black"/>
</svg>
