<svg width="31" height="22" viewBox="0 0 31 22" fill="none" xmlns="http://www.w3.org/2000/svg">
<path d="M4.72586 1.75237C4.72586 0.937634 5.39682 0.21875 6.25948 0.21875H21.5957H24.6629C28.0177 0.21875 30.7974 2.99844 30.7974 6.35323C30.7974 9.75595 28.0177 12.4877 24.6629 12.4877H23.1293C23.1293 15.0278 21.0685 17.0886 18.5284 17.0886H9.32672C6.78666 17.0886 4.72586 15.0278 4.72586 12.4877V1.75237ZM23.1293 9.42047H24.6629C26.3403 9.42047 27.7302 8.07855 27.7302 6.35323C27.7302 4.67583 26.3403 3.28599 24.6629 3.28599H23.1293V9.42047ZM1.65862 18.6222H26.1965C27.0113 18.6222 27.7302 19.3411 27.7302 20.1558C27.7302 21.0185 27.0113 21.6894 26.1965 21.6894H1.65862C0.795959 21.6894 0.125 21.0185 0.125 20.1558C0.125 19.3411 0.795959 18.6222 1.65862 18.6222Z" fill="#F0F5F9"/>
</svg>
