<svg width="26" height="30" viewBox="0 0 26 30" fill="none" xmlns="http://www.w3.org/2000/svg">
<path d="M23.8227 0.62793C24.7692 0.62793 25.6044 1.46312 25.6044 2.40966V13.9909V20.227V27.3539C25.6044 28.3562 24.7692 29.1357 23.8227 29.1357C22.8205 29.1357 22.041 28.3562 22.041 27.3539V20.227H20.2592C18.2548 20.227 16.6958 18.668 16.6958 16.6635V10.4275C16.6958 2.40966 22.9318 0.62793 23.8227 0.62793ZM4.22362 1.5188V9.03548C4.22362 9.31388 4.44634 9.5366 4.72474 9.5366C5.05881 9.5366 5.28153 9.36956 5.28153 9.03548L6.00536 1.46312C6.00536 1.01768 6.39511 0.62793 6.89622 0.62793C7.34166 0.62793 7.73141 1.01768 7.73141 1.46312L8.45524 9.03548C8.45524 9.36956 8.73364 9.5366 9.01203 9.5366C9.29043 9.5366 9.56882 9.31388 9.56882 9.03548V1.5188C9.56882 1.07336 9.9029 0.683609 10.3483 0.683609C10.7938 0.62793 11.1835 0.906325 11.2949 1.35176L12.9653 8.92413C13.0766 9.31388 13.1323 9.64795 13.1323 9.98203C13.1323 12.5433 11.1278 14.6591 8.67796 14.8818V27.3539C8.67796 28.3562 7.84277 29.1357 6.89622 29.1357C5.894 29.1357 5.11449 28.3562 5.11449 27.3539V14.8818C2.60893 14.6591 0.660156 12.5433 0.660156 9.98203C0.660156 9.64795 0.660156 9.31388 0.771515 8.92413L2.44189 1.35176C2.55325 0.906325 2.943 0.62793 3.38844 0.683609C3.83387 0.683609 4.22362 1.07336 4.22362 1.5188ZM6.89622 9.98203H6.84054H6.89622Z" fill="#F0F5F9"/>
</svg>
