<svg width="208.000000" height="31.000000" viewBox="0 0 208 31" fill="none" xmlns="http://www.w3.org/2000/svg" xmlns:xlink="http://www.w3.org/1999/xlink">
	<desc>
			Created with Pixso.
	</desc>
	<defs/>
	<path id="Vector" d="M151.27 24.98C152.86 24.98 154.16 26.19 154.16 27.69C154.16 29.19 152.86 30.4 151.27 30.4L134.64 30.4C133.04 30.4 131.75 29.18 131.75 27.69L131.75 2.03C131.75 0.54 133.04 -0.68 134.64 -0.68C136.23 -0.68 137.53 0.54 137.53 2.03L137.53 24.98L151.27 24.98ZM177.11 -0.1C175.85 -1.02 174.03 -0.82 173.04 0.35L162.2 13.22C161.79 13.7 161.58 14.29 161.58 14.9L161.58 27.47C161.58 28.97 162.87 30.18 164.47 30.18C166.06 30.18 167.36 28.97 167.36 27.47L167.36 15.84L177.59 3.71C178.57 2.54 178.36 0.83 177.11 -0.1ZM161.57 6.8L156.14 0.35C155.14 -0.82 153.32 -1.02 152.07 -0.1C150.82 0.83 150.6 2.54 151.6 3.71L157.03 10.15C157.59 10.83 158.44 11.18 159.3 11.18C159.92 11.18 160.56 10.99 161.09 10.6C162.34 9.67 162.55 7.97 161.57 6.8L161.57 6.8ZM194.57 11.36C188.09 10.44 187.45 9.07 187.45 7.62C187.45 5.15 191.03 4.41 194.04 4.41C197.56 4.41 200.29 6.36 201.27 7.46C202.3 8.61 204.27 8.76 205.5 7.79C206.73 6.83 206.87 5.12 205.85 3.98C203.72 1.61 199.25 -0.78 194.05 -0.78C182.56 -0.78 181.67 5.65 181.67 7.62C181.67 15.16 190.3 16.47 193.56 16.93C199.75 17.8 201.68 19 201.69 21.27C201.7 24.3 197.76 25.19 194.15 25.19C188.9 25.19 186.56 21.85 185.79 21.21C184.59 20.22 182.71 19.92 181.48 20.88C180.25 21.84 180.08 23.54 181.1 24.7C182.27 26.01 186.64 30.29 194.05 30.29C202.7 30.29 207.87 26.81 207.87 20.99C207.87 14.33 199.9 12.13 194.57 11.36L194.57 11.36ZM8.38 -0.68L2.89 -0.68C1.29 -0.68 0 0.54 0 2.03L0 18.51C0 20.01 1.29 21.23 2.89 21.23C4.48 21.23 5.77 20.01 5.77 18.51L5.77 4.74L8.38 4.74C14.34 4.74 19.18 9.28 19.18 14.86C19.18 20.44 14.34 24.98 8.38 24.98L3 24.98C1.41 24.98 0.11 26.19 0.11 27.69C0.11 29.19 1.41 30.4 3 30.4L8.38 30.4C17.53 30.4 24.97 23.43 24.97 14.86C24.97 6.29 17.53 -0.68 8.38 -0.68ZM119.48 8.5C117.88 8.5 116.59 9.71 116.59 11.2L116.59 24.98L113.98 24.98C108.03 24.98 103.18 20.44 103.18 14.86C103.18 9.28 108.03 4.74 113.98 4.74L119.36 4.74C120.96 4.74 122.26 3.53 122.26 2.03C122.26 0.54 120.96 -0.68 119.36 -0.68L113.98 -0.68C104.84 -0.68 97.4 6.3 97.4 14.86C97.4 23.42 104.84 30.39 113.98 30.39L119.48 30.39C121.08 30.39 122.38 29.18 122.38 27.69L122.38 11.2C122.38 9.71 121.08 8.5 119.48 8.5ZM82.31 30.33C89.48 30.33 93.11 25.12 93.11 14.84C93.11 10.32 92.53 7.07 91.26 4.61C89.5 1.16 86.4 -0.66 82.31 -0.66C79.01 -0.66 75.19 1.11 70.65 4.75C67.61 7.19 64.12 10.54 64.12 14.84C64.12 18.91 67.44 22.2 70.33 24.61C74.89 28.41 78.92 30.33 82.31 30.33L82.31 30.33ZM82.31 4.62C84.24 4.62 85.35 5.28 86.18 6.89C87.05 8.6 87.47 11.19 87.47 14.84C87.47 25.05 83.99 25.05 82.31 25.05C80.42 25.05 77.42 23.45 74.08 20.66C71.13 18.2 69.75 16.35 69.75 14.84C69.75 13.21 71.25 11.23 74.32 8.77C78.81 5.16 81.26 4.62 82.31 4.62ZM42.01 30.33C45.4 30.33 49.43 28.41 53.98 24.61C56.88 22.19 60.2 18.91 60.2 14.84C60.2 10.54 56.7 7.19 53.67 4.75C49.13 1.11 45.3 -0.66 42.01 -0.66C37.91 -0.66 34.81 1.16 33.05 4.6C31.78 7.07 31.2 10.32 31.2 14.84C31.2 25.12 34.83 30.33 42.01 30.33L42.01 30.33ZM42.01 4.62C43.07 4.62 45.5 5.15 50.01 8.77C53.07 11.23 54.56 13.21 54.56 14.84C54.56 16.35 53.19 18.2 50.24 20.66C46.89 23.45 43.9 25.05 42.01 25.05C40.33 25.05 36.84 25.05 36.84 14.84C36.84 11.19 37.26 8.59 38.14 6.88C38.96 5.28 40.08 4.62 42.01 4.62Z" fill="#FFFFFF" fill-opacity="1.000000" fill-rule="evenodd"/>
</svg>
