<svg width="112" height="75" viewBox="0 0 112 75" fill="none" xmlns="http://www.w3.org/2000/svg">
<g clip-path="url(#clip0_250_470)">
<path fill-rule="evenodd" clip-rule="evenodd" d="M6.6107 36.9009L6.81095 42.1421L29.7276 32.846L29.5274 27.6048L6.6107 36.9009ZM6.91014 44.7618L7.10996 50.002L30.0267 40.7059L29.8268 35.4657L6.91014 44.7618ZM7.21473 52.6207L7.41456 57.8608L30.3313 48.5647L30.1304 43.325L7.21473 52.6207Z" fill="#009FDF"/>
<mask id="mask0_250_470" style="mask-type:luminance" maskUnits="userSpaceOnUse" x="37" y="7" width="75" height="54">
<path d="M48.5559 60.5739L111.288 35.1269L99.931 7.1306L37.1992 32.5776L48.5559 60.5739Z" fill="white"/>
</mask>
<g mask="url(#mask0_250_470)">
<path fill-rule="evenodd" clip-rule="evenodd" d="M56.8412 39.8394L56.8803 39.9358C58.085 39.8989 59.3605 40.1712 60.0613 40.3941C62.2309 41.0936 63.6727 42.5956 64.6158 44.9205C66.1685 48.7481 65.2875 52.3202 62.3545 54.5256C61.4718 55.2218 60.4641 55.7441 58.5102 56.5367L48.5561 60.5746L37.1992 32.5776L46.0111 29.0031C47.8213 28.2688 49.0984 27.8631 50.3114 27.7091C53.8571 27.2865 56.8567 28.6649 58.2908 32.2C59.0572 34.0894 59.0389 35.959 58.3757 37.4683C58.0959 38.1458 57.6649 38.9981 56.8412 39.8394ZM49.2277 46.3684L52.2144 53.7311L56.0253 52.1852C57.1675 51.7219 58.1767 51.2002 58.6446 50.1638C59.1115 49.1278 59.0719 48.0728 58.5805 46.8615C58.2074 45.9417 57.615 45.1664 56.8834 44.7301C55.661 44.0413 54.5622 44.2044 52.848 44.8998L49.2277 46.3684ZM47.2149 41.544L50.311 40.2881C51.2634 39.9017 51.7397 39.7085 52.157 39.3702C53.2867 38.4602 53.6252 36.9704 52.9766 35.3713C52.2106 33.4829 51.0185 33.0064 49.6226 33.1222C49.0395 33.1897 48.4966 33.3532 47.4483 33.7784L44.5429 34.957L47.2149 41.544ZM76.0871 49.4067L66.6358 26.1073L58.6815 29.334L56.7759 24.6364L78.8777 15.6709L79.2118 21.0059L72.161 23.8661L81.6123 47.1654L76.0871 49.4067ZM91.9488 42.9724L80.5919 14.9755L98.5023 7.71015L98.8364 13.0452L87.9757 17.4508L90.4909 23.651L94.9208 21.8541C98.4931 20.405 100.705 20.5234 102.443 21.1155C103.797 21.5818 106.297 22.8235 107.849 26.6511C109.382 30.4289 108.464 33.226 107.42 34.891C106.197 36.7966 104.525 37.871 100.857 39.359L91.9488 42.9724ZM95.5211 36.0515L99.6655 34.3703C101.237 33.7329 102.032 32.9586 102.345 31.816C102.502 31.2452 102.664 30.2763 102.074 28.8235C101.485 27.3706 100.596 26.5465 99.3487 26.206C98.601 26.0021 97.7401 26.0699 96.4542 26.5915L92.3577 28.2533L95.5211 36.0515Z" fill="#0A2973"/>
</g>
</g>
<defs>
<clipPath id="clip0_250_470">
<rect width="105" height="38" fill="white" transform="translate(0 39.5825) rotate(-22.0798)"/>
</clipPath>
</defs>
</svg>
