<svg xmlns="http://www.w3.org/2000/svg" fill="none" viewBox="0 0 19 24"><path fill="url(#a)" d="M6.093.96H2.099C.94.96 0 1.835 0 2.915v11.902c0 1.08.939 1.96 2.1 1.96 1.16 0 2.097-.88 2.097-1.96V4.871h1.896c4.328 0 7.844 3.28 7.844 7.31 0 4.028-3.516 7.307-7.844 7.307H2.185c-1.158 0-2.102.876-2.102 1.959 0 1.082.945 1.954 2.102 1.954h3.908c6.647 0 12.051-5.032 12.051-11.22 0-6.188-5.404-11.22-12.051-11.22Z"/><defs><linearGradient id="a" x1="-3" x2="34.995" y1="-1" y2="22.384" gradientUnits="userSpaceOnUse"><stop stop-color="#7300CD"/><stop offset="1" stop-color="#00C6CC"/></linearGradient></defs></svg>